<mxfile host="app.diagrams.net" modified="2021-06-04T08:15:27.780Z" agent="5.0 (Windows NT 10.0; Win64; x64) AppleWebKit/537.36 (KHTML, like Gecko) Chrome/90.0.4430.212 Safari/537.36" etag="AxdsquOkRkMJkoAuPPdt" version="14.7.2" type="github">
  <diagram id="z1iZUHxwk2cOEqX16GdH" name="Page-1">
    <mxGraphModel dx="1449" dy="629" grid="1" gridSize="10" guides="1" tooltips="1" connect="1" arrows="1" fold="1" page="1" pageScale="1" pageWidth="827" pageHeight="1169" math="0" shadow="0">
      <root>
        <mxCell id="0" />
        <mxCell id="1" parent="0" />
        <mxCell id="mXhgvyvCUNOTh_4j2mc--1" value="&lt;font style=&quot;font-size: 24px&quot; face=&quot;Times New Roman&quot;&gt;&lt;b&gt;Input&lt;br&gt;(1024,1)&lt;/b&gt;&lt;/font&gt;" style="rounded=1;whiteSpace=wrap;html=1;fillColor=#FFE6CC;strokeColor=#FFB570;" parent="1" vertex="1">
          <mxGeometry x="280" y="30" width="120" height="60" as="geometry" />
        </mxCell>
        <mxCell id="mXhgvyvCUNOTh_4j2mc--2" value="" style="edgeStyle=orthogonalEdgeStyle;rounded=0;orthogonalLoop=1;jettySize=auto;html=1;" parent="1" source="mXhgvyvCUNOTh_4j2mc--3" target="mXhgvyvCUNOTh_4j2mc--4" edge="1">
          <mxGeometry relative="1" as="geometry" />
        </mxCell>
        <mxCell id="mXhgvyvCUNOTh_4j2mc--3" value="&lt;font style=&quot;font-size: 24px&quot; face=&quot;Times New Roman&quot;&gt;&lt;b&gt;(3862,1)&lt;/b&gt;&lt;/font&gt;" style="rounded=1;whiteSpace=wrap;html=1;fillColor=#D4E1F5;strokeColor=#7EA6E0;" parent="1" vertex="1">
          <mxGeometry x="160" y="175" width="120" height="60" as="geometry" />
        </mxCell>
        <mxCell id="mXhgvyvCUNOTh_4j2mc--4" value="&lt;font face=&quot;Times New Roman&quot; style=&quot;font-size: 24px&quot;&gt;&lt;b&gt;(3862,1)&lt;/b&gt;&lt;/font&gt;" style="rounded=1;whiteSpace=wrap;html=1;fillColor=#D4E1F5;strokeColor=#7EA6E0;" parent="1" vertex="1">
          <mxGeometry x="160" y="290" width="120" height="60" as="geometry" />
        </mxCell>
        <mxCell id="mXhgvyvCUNOTh_4j2mc--7" value="" style="endArrow=classic;html=1;rounded=0;edgeStyle=orthogonalEdgeStyle;exitX=0.5;exitY=1;exitDx=0;exitDy=0;entryX=0.5;entryY=0;entryDx=0;entryDy=0;" parent="1" source="mXhgvyvCUNOTh_4j2mc--1" target="mXhgvyvCUNOTh_4j2mc--3" edge="1">
          <mxGeometry width="50" height="50" relative="1" as="geometry">
            <mxPoint x="370" y="200" as="sourcePoint" />
            <mxPoint x="420" y="150" as="targetPoint" />
            <Array as="points">
              <mxPoint x="340" y="130" />
              <mxPoint x="220" y="130" />
            </Array>
          </mxGeometry>
        </mxCell>
        <mxCell id="mXhgvyvCUNOTh_4j2mc--14" value="&lt;span&gt;&lt;font face=&quot;Times New Roman&quot; style=&quot;font-size: 24px&quot;&gt;&lt;b&gt;(1024,3862)&lt;/b&gt;&lt;/font&gt;&lt;/span&gt;" style="rounded=1;whiteSpace=wrap;html=1;fillColor=#FFE6CC;strokeColor=#FFB570;" parent="1" vertex="1">
          <mxGeometry x="273" y="430" width="138" height="60" as="geometry" />
        </mxCell>
        <mxCell id="mXhgvyvCUNOTh_4j2mc--35" value="" style="edgeStyle=orthogonalEdgeStyle;rounded=0;orthogonalLoop=1;jettySize=auto;html=1;" parent="1" source="mXhgvyvCUNOTh_4j2mc--16" target="mXhgvyvCUNOTh_4j2mc--14" edge="1">
          <mxGeometry relative="1" as="geometry" />
        </mxCell>
        <mxCell id="mXhgvyvCUNOTh_4j2mc--16" value="" style="ellipse;whiteSpace=wrap;html=1;aspect=fixed;fillColor=#E6E6E6;" parent="1" vertex="1">
          <mxGeometry x="327" y="351" width="30" height="30" as="geometry" />
        </mxCell>
        <mxCell id="mXhgvyvCUNOTh_4j2mc--17" value="" style="endArrow=classic;html=1;rounded=0;edgeStyle=orthogonalEdgeStyle;exitX=0.5;exitY=1;exitDx=0;exitDy=0;entryX=0;entryY=0.5;entryDx=0;entryDy=0;" parent="1" source="mXhgvyvCUNOTh_4j2mc--4" target="mXhgvyvCUNOTh_4j2mc--16" edge="1">
          <mxGeometry width="50" height="50" relative="1" as="geometry">
            <mxPoint x="50" y="475" as="sourcePoint" />
            <mxPoint x="100" y="425" as="targetPoint" />
          </mxGeometry>
        </mxCell>
        <mxCell id="mXhgvyvCUNOTh_4j2mc--18" value="" style="endArrow=none;html=1;rounded=0;edgeStyle=orthogonalEdgeStyle;exitX=0;exitY=0;exitDx=0;exitDy=0;entryX=1;entryY=1;entryDx=0;entryDy=0;fillColor=#E6E6E6;" parent="1" source="mXhgvyvCUNOTh_4j2mc--16" target="mXhgvyvCUNOTh_4j2mc--16" edge="1">
          <mxGeometry width="50" height="50" relative="1" as="geometry">
            <mxPoint x="42" y="391" as="sourcePoint" />
            <mxPoint x="92" y="341" as="targetPoint" />
          </mxGeometry>
        </mxCell>
        <mxCell id="mXhgvyvCUNOTh_4j2mc--19" value="" style="endArrow=none;html=1;rounded=0;edgeStyle=orthogonalEdgeStyle;exitX=0;exitY=1;exitDx=0;exitDy=0;entryX=1;entryY=0;entryDx=0;entryDy=0;fillColor=#E6E6E6;" parent="1" source="mXhgvyvCUNOTh_4j2mc--16" target="mXhgvyvCUNOTh_4j2mc--16" edge="1">
          <mxGeometry width="50" height="50" relative="1" as="geometry">
            <mxPoint x="422" y="331" as="sourcePoint" />
            <mxPoint x="472" y="281" as="targetPoint" />
          </mxGeometry>
        </mxCell>
        <mxCell id="mXhgvyvCUNOTh_4j2mc--21" value="&lt;font style=&quot;font-size: 24px&quot; face=&quot;Times New Roman&quot;&gt;&lt;b&gt;(1024,1)&lt;/b&gt;&lt;/font&gt;" style="rounded=1;whiteSpace=wrap;html=1;fillColor=#D4E1F5;strokeColor=#7EA6E0;" parent="1" vertex="1">
          <mxGeometry x="400" y="175" width="120" height="60" as="geometry" />
        </mxCell>
        <mxCell id="mXhgvyvCUNOTh_4j2mc--23" value="" style="endArrow=classic;html=1;rounded=0;edgeStyle=orthogonalEdgeStyle;exitX=0.5;exitY=1;exitDx=0;exitDy=0;entryX=0.5;entryY=0;entryDx=0;entryDy=0;" parent="1" source="mXhgvyvCUNOTh_4j2mc--1" target="mXhgvyvCUNOTh_4j2mc--21" edge="1">
          <mxGeometry width="50" height="50" relative="1" as="geometry">
            <mxPoint x="570" y="110" as="sourcePoint" />
            <mxPoint x="650" y="150" as="targetPoint" />
            <Array as="points">
              <mxPoint x="340" y="130" />
              <mxPoint x="460" y="130" />
            </Array>
          </mxGeometry>
        </mxCell>
        <mxCell id="mXhgvyvCUNOTh_4j2mc--24" value="" style="endArrow=classic;html=1;rounded=0;edgeStyle=orthogonalEdgeStyle;exitX=0.5;exitY=1;exitDx=0;exitDy=0;entryX=1;entryY=0.5;entryDx=0;entryDy=0;" parent="1" source="mXhgvyvCUNOTh_4j2mc--21" target="mXhgvyvCUNOTh_4j2mc--16" edge="1">
          <mxGeometry width="50" height="50" relative="1" as="geometry">
            <mxPoint x="460" y="350" as="sourcePoint" />
            <mxPoint x="345" y="376" as="targetPoint" />
          </mxGeometry>
        </mxCell>
        <mxCell id="mXhgvyvCUNOTh_4j2mc--30" value="&lt;font style=&quot;font-size: 24px&quot; face=&quot;Times New Roman&quot;&gt;&lt;b&gt;Sigmoid&lt;/b&gt;&lt;/font&gt;" style="text;html=1;strokeColor=none;fillColor=none;align=center;verticalAlign=middle;whiteSpace=wrap;rounded=0;" parent="1" vertex="1">
          <mxGeometry x="230" y="245" width="100" height="30" as="geometry" />
        </mxCell>
        <mxCell id="mXhgvyvCUNOTh_4j2mc--34" value="&lt;font style=&quot;font-size: 24px&quot; face=&quot;Times New Roman&quot;&gt;&lt;b&gt;Conv(1024,3862)&lt;/b&gt;&lt;/font&gt;" style="text;html=1;strokeColor=none;fillColor=none;align=center;verticalAlign=middle;whiteSpace=wrap;rounded=0;" parent="1" vertex="1">
          <mxGeometry x="130" y="94" width="200" height="30" as="geometry" />
        </mxCell>
        <mxCell id="mXhgvyvCUNOTh_4j2mc--36" value="&lt;font style=&quot;font-size: 24px&quot; face=&quot;Times New Roman&quot;&gt;&lt;b&gt;Class=3862&lt;/b&gt;&lt;/font&gt;" style="text;html=1;strokeColor=none;fillColor=none;align=center;verticalAlign=middle;whiteSpace=wrap;rounded=0;" parent="1" vertex="1">
          <mxGeometry x="470" y="30" width="130" height="40" as="geometry" />
        </mxCell>
        <mxCell id="mXhgvyvCUNOTh_4j2mc--37" value="&lt;font style=&quot;font-size: 24px&quot; face=&quot;Times New Roman&quot;&gt;&lt;b&gt;Channel=1024&lt;/b&gt;&lt;/font&gt;" style="text;html=1;strokeColor=none;fillColor=none;align=center;verticalAlign=middle;whiteSpace=wrap;rounded=0;" parent="1" vertex="1">
          <mxGeometry x="450" y="80" width="170" height="30" as="geometry" />
        </mxCell>
      </root>
    </mxGraphModel>
  </diagram>
</mxfile>
